<?xml version="1.0" encoding="us-ascii" standalone="no"?><svg xmlns="http://www.w3.org/2000/svg" xmlns:xlink="http://www.w3.org/1999/xlink" contentStyleType="text/css" height="1620px" preserveAspectRatio="none" style="width:806px;height:1620px;background:#FFFFFF;" version="1.1" viewBox="0 0 806 1620" width="806px" zoomAndPan="magnify"><defs/><g><rect fill="none" height="132.6641" style="stroke:#000000;stroke-width:1.5;" width="517.5" x="227.5" y="142.5625"/><rect fill="none" height="480.2578" style="stroke:#000000;stroke-width:1.5;" width="790" x="10" y="289.2266"/><rect fill="none" height="159.6641" style="stroke:#000000;stroke-width:1.5;" width="439.5" x="227.5" y="783.4844"/><rect fill="none" height="565.5234" style="stroke:#000000;stroke-width:1.5;" width="735" x="10" y="957.1484"/><line style="stroke:#181818;stroke-width:0.5;stroke-dasharray:5.0,5.0;" x1="38" x2="38" y1="81.2969" y2="1539.6719"/><line style="stroke:#181818;stroke-width:0.5;stroke-dasharray:5.0,5.0;" x1="273.5" x2="273.5" y1="81.2969" y2="1539.6719"/><line style="stroke:#181818;stroke-width:0.5;stroke-dasharray:5.0,5.0;" x1="337.5" x2="337.5" y1="81.2969" y2="1539.6719"/><line style="stroke:#181818;stroke-width:0.5;stroke-dasharray:5.0,5.0;" x1="442" x2="442" y1="81.2969" y2="1539.6719"/><line style="stroke:#181818;stroke-width:0.5;stroke-dasharray:5.0,5.0;" x1="511" x2="511" y1="81.2969" y2="1539.6719"/><text fill="#000000" font-family="sans-serif" font-size="14" lengthAdjust="spacing" textLength="31" x="20" y="77.9951">User</text><ellipse cx="38.5" cy="13.5" fill="#E2E2F0" rx="8" ry="8" style="stroke:#181818;stroke-width:0.5;"/><path d="M38.5,21.5 L38.5,48.5 M25.5,29.5 L51.5,29.5 M38.5,48.5 L25.5,63.5 M38.5,48.5 L51.5,63.5 " fill="none" style="stroke:#181818;stroke-width:0.5;"/><text fill="#000000" font-family="sans-serif" font-size="14" lengthAdjust="spacing" textLength="31" x="20" y="1551.667">User</text><ellipse cx="38.5" cy="1563.4688" fill="#E2E2F0" rx="8" ry="8" style="stroke:#181818;stroke-width:0.5;"/><path d="M38.5,1571.4688 L38.5,1598.4688 M25.5,1579.4688 L51.5,1579.4688 M38.5,1598.4688 L25.5,1613.4688 M38.5,1598.4688 L51.5,1613.4688 " fill="none" style="stroke:#181818;stroke-width:0.5;"/><rect fill="#E2E2F0" height="30.2969" style="stroke:#181818;stroke-width:0.5;" width="68" x="241.5" y="46"/><rect fill="#E2E2F0" height="30.2969" style="stroke:#181818;stroke-width:0.5;" width="68" x="237.5" y="50"/><text fill="#000000" font-family="sans-serif" font-size="14" lengthAdjust="spacing" textLength="54" x="244.5" y="69.9951">devices</text><rect fill="#E2E2F0" height="30.2969" style="stroke:#181818;stroke-width:0.5;" width="68" x="241.5" y="1538.6719"/><rect fill="#E2E2F0" height="30.2969" style="stroke:#181818;stroke-width:0.5;" width="68" x="237.5" y="1542.6719"/><text fill="#000000" font-family="sans-serif" font-size="14" lengthAdjust="spacing" textLength="54" x="244.5" y="1562.667">devices</text><text fill="#000000" font-family="sans-serif" font-size="14" lengthAdjust="spacing" textLength="30" x="319.5" y="77.9951">App</text><ellipse cx="337.5" cy="49" fill="#E2E2F0" rx="12" ry="12" style="stroke:#181818;stroke-width:0.5;"/><line style="stroke:#181818;stroke-width:0.5;" x1="325.5" x2="349.5" y1="63" y2="63"/><text fill="#000000" font-family="sans-serif" font-size="14" lengthAdjust="spacing" textLength="30" x="319.5" y="1551.667">App</text><ellipse cx="337.5" cy="1570.9688" fill="#E2E2F0" rx="12" ry="12" style="stroke:#181818;stroke-width:0.5;"/><line style="stroke:#181818;stroke-width:0.5;" x1="325.5" x2="349.5" y1="1584.9688" y2="1584.9688"/><text fill="#000000" font-family="sans-serif" font-size="14" lengthAdjust="spacing" textLength="24" x="427.5" y="77.9951">IDP</text><path d="M422,37 L422,61 M422,49 L439,49 " fill="none" style="stroke:#181818;stroke-width:0.5;"/><ellipse cx="451" cy="49" fill="#E2E2F0" rx="12" ry="12" style="stroke:#181818;stroke-width:0.5;"/><text fill="#000000" font-family="sans-serif" font-size="14" lengthAdjust="spacing" textLength="24" x="427.5" y="1551.667">IDP</text><path d="M422,1558.9688 L422,1582.9688 M422,1570.9688 L439,1570.9688 " fill="none" style="stroke:#181818;stroke-width:0.5;"/><ellipse cx="451" cy="1570.9688" fill="#E2E2F0" rx="12" ry="12" style="stroke:#181818;stroke-width:0.5;"/><text fill="#000000" font-family="sans-serif" font-size="14" lengthAdjust="spacing" textLength="62" x="477" y="77.9951">Backend</text><path d="M493,29 C493,19 511,19 511,19 C511,19 529,19 529,29 L529,55 C529,65 511,65 511,65 C511,65 493,65 493,55 L493,29 " fill="#E2E2F0" style="stroke:#181818;stroke-width:1.5;"/><path d="M493,29 C493,39 511,39 511,39 C511,39 529,39 529,29 " fill="none" style="stroke:#181818;stroke-width:1.5;"/><text fill="#000000" font-family="sans-serif" font-size="14" lengthAdjust="spacing" textLength="62" x="477" y="1551.667">Backend</text><path d="M493,1564.9688 C493,1554.9688 511,1554.9688 511,1554.9688 C511,1554.9688 529,1554.9688 529,1564.9688 L529,1590.9688 C529,1600.9688 511,1600.9688 511,1600.9688 C511,1600.9688 493,1600.9688 493,1590.9688 L493,1564.9688 " fill="#E2E2F0" style="stroke:#181818;stroke-width:1.5;"/><path d="M493,1564.9688 C493,1574.9688 511,1574.9688 511,1574.9688 C511,1574.9688 529,1574.9688 529,1564.9688 " fill="none" style="stroke:#181818;stroke-width:1.5;"/><polygon fill="#181818" points="261.5,123.5625,271.5,127.5625,261.5,131.5625,265.5,127.5625" style="stroke:#181818;stroke-width:1.0;"/><line style="stroke:#181818;stroke-width:1.0;" x1="38.5" x2="267.5" y1="127.5625" y2="127.5625"/><text fill="#000000" font-family="sans-serif" font-size="13" lengthAdjust="spacing" textLength="46" x="45.5" y="107.3638">turn on</text><text fill="#000000" font-family="sans-serif" font-size="13" lengthAdjust="spacing" textLength="207" x="49.5" y="122.4966">User in same network as Device</text><path d="M227.5,142.5625 L405.5,142.5625 L405.5,149.6953 L395.5,159.6953 L227.5,159.6953 L227.5,142.5625 " fill="#EEEEEE" style="stroke:#000000;stroke-width:1.5;"/><rect fill="none" height="132.6641" style="stroke:#000000;stroke-width:1.5;" width="517.5" x="227.5" y="142.5625"/><text fill="#000000" font-family="sans-serif" font-size="13" font-weight="bold" lengthAdjust="spacing" textLength="133" x="242.5" y="155.6294">before activation</text><polygon fill="#181818" points="499,176.8281,509,180.8281,499,184.8281,503,180.8281" style="stroke:#181818;stroke-width:1.0;"/><line style="stroke:#181818;stroke-width:1.0;" x1="273.5" x2="505" y1="180.8281" y2="180.8281"/><text fill="#000000" font-family="sans-serif" font-size="13" lengthAdjust="spacing" textLength="142" x="280.5" y="175.7622">getToken(initialToken)</text><line style="stroke:#181818;stroke-width:1.0;stroke-dasharray:2.0,2.0;" x1="511" x2="553" y1="225.0938" y2="225.0938"/><line style="stroke:#181818;stroke-width:1.0;stroke-dasharray:2.0,2.0;" x1="553" x2="553" y1="225.0938" y2="238.0938"/><line style="stroke:#181818;stroke-width:1.0;stroke-dasharray:2.0,2.0;" x1="512" x2="553" y1="238.0938" y2="238.0938"/><polygon fill="#181818" points="522,234.0938,512,238.0938,522,242.0938,518,238.0938" style="stroke:#181818;stroke-width:1.0;"/><text fill="#000000" font-family="sans-serif" font-size="13" lengthAdjust="spacing" textLength="215" x="518" y="204.895">find(initialToken, status=pending)</text><text fill="#000000" font-family="sans-serif" font-size="13" lengthAdjust="spacing" textLength="32" x="518" y="220.0278">none</text><polygon fill="#181818" points="284.5,263.2266,274.5,267.2266,284.5,271.2266,280.5,267.2266" style="stroke:#181818;stroke-width:1.0;"/><line style="stroke:#181818;stroke-width:1.0;stroke-dasharray:2.0,2.0;" x1="278.5" x2="510" y1="267.2266" y2="267.2266"/><text fill="#000000" font-family="sans-serif" font-size="13" lengthAdjust="spacing" textLength="89" x="290.5" y="262.1606">403/forbidden</text><path d="M10,289.2266 L207,289.2266 L207,296.3594 L197,306.3594 L10,306.3594 L10,289.2266 " fill="#EEEEEE" style="stroke:#000000;stroke-width:1.5;"/><rect fill="none" height="480.2578" style="stroke:#000000;stroke-width:1.5;" width="790" x="10" y="289.2266"/><text fill="#000000" font-family="sans-serif" font-size="13" font-weight="bold" lengthAdjust="spacing" textLength="152" x="25" y="302.2935">activation sequence</text><polygon fill="#181818" points="325.5,323.4922,335.5,327.4922,325.5,331.4922,329.5,327.4922" style="stroke:#181818;stroke-width:1.0;"/><line style="stroke:#181818;stroke-width:1.0;" x1="38.5" x2="331.5" y1="327.4922" y2="327.4922"/><text fill="#000000" font-family="sans-serif" font-size="13" lengthAdjust="spacing" textLength="81" x="45.5" y="322.4263">authenticate</text><polygon fill="#181818" points="430.5,352.625,440.5,356.625,430.5,360.625,434.5,356.625" style="stroke:#181818;stroke-width:1.0;"/><line style="stroke:#181818;stroke-width:1.0;" x1="337.5" x2="436.5" y1="356.625" y2="356.625"/><text fill="#000000" font-family="sans-serif" font-size="13" lengthAdjust="spacing" textLength="81" x="344.5" y="351.5591">authenticate</text><polygon fill="#181818" points="348.5,381.7578,338.5,385.7578,348.5,389.7578,344.5,385.7578" style="stroke:#181818;stroke-width:1.0;"/><line style="stroke:#181818;stroke-width:1.0;stroke-dasharray:2.0,2.0;" x1="342.5" x2="441.5" y1="385.7578" y2="385.7578"/><text fill="#000000" font-family="sans-serif" font-size="13" lengthAdjust="spacing" textLength="15" x="354.5" y="380.6919">ok</text><polygon fill="#181818" points="49.5,410.8906,39.5,414.8906,49.5,418.8906,45.5,414.8906" style="stroke:#181818;stroke-width:1.0;"/><line style="stroke:#181818;stroke-width:1.0;stroke-dasharray:2.0,2.0;" x1="43.5" x2="336.5" y1="414.8906" y2="414.8906"/><text fill="#000000" font-family="sans-serif" font-size="13" lengthAdjust="spacing" textLength="12" x="55.5" y="409.8247">UI</text><polygon fill="#181818" points="325.5,440.0234,335.5,444.0234,325.5,448.0234,329.5,444.0234" style="stroke:#181818;stroke-width:1.0;"/><line style="stroke:#181818;stroke-width:1.0;" x1="38.5" x2="331.5" y1="444.0234" y2="444.0234"/><text fill="#000000" font-family="sans-serif" font-size="13" lengthAdjust="spacing" textLength="150" x="45.5" y="438.9575">addDevice(initialToken)</text><polygon fill="#181818" points="499,484.2891,509,488.2891,499,492.2891,503,488.2891" style="stroke:#181818;stroke-width:1.0;"/><line style="stroke:#181818;stroke-width:1.0;" x1="337.5" x2="505" y1="488.2891" y2="488.2891"/><text fill="#000000" font-family="sans-serif" font-size="13" lengthAdjust="spacing" textLength="116" x="344.5" y="468.0903">claim(initialToken)</text><text fill="#000000" font-family="sans-serif" font-size="13" lengthAdjust="spacing" textLength="78" x="344.5" y="483.2231">[authorized]</text><line style="stroke:#181818;stroke-width:1.0;stroke-dasharray:2.0,2.0;" x1="511" x2="553" y1="532.5547" y2="532.5547"/><line style="stroke:#181818;stroke-width:1.0;stroke-dasharray:2.0,2.0;" x1="553" x2="553" y1="532.5547" y2="545.5547"/><line style="stroke:#181818;stroke-width:1.0;stroke-dasharray:2.0,2.0;" x1="512" x2="553" y1="545.5547" y2="545.5547"/><polygon fill="#181818" points="522,541.5547,512,545.5547,522,549.5547,518,545.5547" style="stroke:#181818;stroke-width:1.0;"/><text fill="#000000" font-family="sans-serif" font-size="13" lengthAdjust="spacing" textLength="41" x="518" y="512.356">create</text><text fill="#000000" font-family="sans-serif" font-size="13" lengthAdjust="spacing" textLength="270" x="518" y="527.4888">[token,initialToken,status=pending,userId]</text><polygon fill="#181818" points="348.5,570.6875,338.5,574.6875,348.5,578.6875,344.5,574.6875" style="stroke:#181818;stroke-width:1.0;"/><line style="stroke:#181818;stroke-width:1.0;stroke-dasharray:2.0,2.0;" x1="342.5" x2="510" y1="574.6875" y2="574.6875"/><text fill="#000000" font-family="sans-serif" font-size="13" lengthAdjust="spacing" textLength="15" x="354.5" y="569.6216">ok</text><polygon fill="#181818" points="49.5,599.8203,39.5,603.8203,49.5,607.8203,45.5,603.8203" style="stroke:#181818;stroke-width:1.0;"/><line style="stroke:#181818;stroke-width:1.0;stroke-dasharray:2.0,2.0;" x1="43.5" x2="336.5" y1="603.8203" y2="603.8203"/><text fill="#000000" font-family="sans-serif" font-size="13" lengthAdjust="spacing" textLength="15" x="55.5" y="598.7544">ok</text><polygon fill="#181818" points="499,628.9531,509,632.9531,499,636.9531,503,632.9531" style="stroke:#181818;stroke-width:1.0;"/><line style="stroke:#181818;stroke-width:1.0;" x1="273.5" x2="505" y1="632.9531" y2="632.9531"/><text fill="#000000" font-family="sans-serif" font-size="13" lengthAdjust="spacing" textLength="142" x="280.5" y="627.8872">getToken(initialToken)</text><line style="stroke:#181818;stroke-width:1.0;stroke-dasharray:2.0,2.0;" x1="511" x2="553" y1="677.2188" y2="677.2188"/><line style="stroke:#181818;stroke-width:1.0;stroke-dasharray:2.0,2.0;" x1="553" x2="553" y1="677.2188" y2="690.2188"/><line style="stroke:#181818;stroke-width:1.0;stroke-dasharray:2.0,2.0;" x1="512" x2="553" y1="690.2188" y2="690.2188"/><polygon fill="#181818" points="522,686.2188,512,690.2188,522,694.2188,518,690.2188" style="stroke:#181818;stroke-width:1.0;"/><text fill="#000000" font-family="sans-serif" font-size="13" lengthAdjust="spacing" textLength="215" x="518" y="657.02">find(initialToken, status=pending)</text><text fill="#000000" font-family="sans-serif" font-size="13" lengthAdjust="spacing" textLength="37" x="518" y="672.1528">found</text><line style="stroke:#181818;stroke-width:1.0;stroke-dasharray:2.0,2.0;" x1="511" x2="553" y1="719.3516" y2="719.3516"/><line style="stroke:#181818;stroke-width:1.0;stroke-dasharray:2.0,2.0;" x1="553" x2="553" y1="719.3516" y2="732.3516"/><line style="stroke:#181818;stroke-width:1.0;stroke-dasharray:2.0,2.0;" x1="512" x2="553" y1="732.3516" y2="732.3516"/><polygon fill="#181818" points="522,728.3516,512,732.3516,522,736.3516,518,732.3516" style="stroke:#181818;stroke-width:1.0;"/><text fill="#000000" font-family="sans-serif" font-size="13" lengthAdjust="spacing" textLength="144" x="518" y="714.2856">update(status=active)</text><polygon fill="#181818" points="284.5,757.4844,274.5,761.4844,284.5,765.4844,280.5,761.4844" style="stroke:#181818;stroke-width:1.0;"/><line style="stroke:#181818;stroke-width:1.0;stroke-dasharray:2.0,2.0;" x1="278.5" x2="510" y1="761.4844" y2="761.4844"/><text fill="#000000" font-family="sans-serif" font-size="13" lengthAdjust="spacing" textLength="36" x="290.5" y="756.4185">token</text><path d="M227.5,783.4844 L425.5,783.4844 L425.5,790.6172 L415.5,800.6172 L227.5,800.6172 L227.5,783.4844 " fill="#EEEEEE" style="stroke:#000000;stroke-width:1.5;"/><rect fill="none" height="159.6641" style="stroke:#000000;stroke-width:1.5;" width="439.5" x="227.5" y="783.4844"/><text fill="#000000" font-family="sans-serif" font-size="13" font-weight="bold" lengthAdjust="spacing" textLength="153" x="242.5" y="796.5513">send measurements</text><polygon fill="#181818" points="499,817.75,509,821.75,499,825.75,503,821.75" style="stroke:#181818;stroke-width:1.0;"/><line style="stroke:#181818;stroke-width:1.0;" x1="273.5" x2="505" y1="821.75" y2="821.75"/><text fill="#000000" font-family="sans-serif" font-size="13" lengthAdjust="spacing" textLength="209" x="280.5" y="816.6841">measurement(type,value,token)</text><line style="stroke:#181818;stroke-width:1.0;stroke-dasharray:2.0,2.0;" x1="511" x2="553" y1="850.8828" y2="850.8828"/><line style="stroke:#181818;stroke-width:1.0;stroke-dasharray:2.0,2.0;" x1="553" x2="553" y1="850.8828" y2="863.8828"/><line style="stroke:#181818;stroke-width:1.0;stroke-dasharray:2.0,2.0;" x1="512" x2="553" y1="863.8828" y2="863.8828"/><polygon fill="#181818" points="522,859.8828,512,863.8828,522,867.8828,518,863.8828" style="stroke:#181818;stroke-width:1.0;"/><text fill="#000000" font-family="sans-serif" font-size="13" lengthAdjust="spacing" textLength="114" x="518" y="845.8169">findDevice(token)</text><line style="stroke:#181818;stroke-width:1.0;stroke-dasharray:2.0,2.0;" x1="511" x2="553" y1="893.0156" y2="893.0156"/><line style="stroke:#181818;stroke-width:1.0;stroke-dasharray:2.0,2.0;" x1="553" x2="553" y1="893.0156" y2="906.0156"/><line style="stroke:#181818;stroke-width:1.0;stroke-dasharray:2.0,2.0;" x1="512" x2="553" y1="906.0156" y2="906.0156"/><polygon fill="#181818" points="522,902.0156,512,906.0156,522,910.0156,518,906.0156" style="stroke:#181818;stroke-width:1.0;"/><text fill="#000000" font-family="sans-serif" font-size="13" lengthAdjust="spacing" textLength="137" x="518" y="887.9497">insert(measurement)</text><polygon fill="#181818" points="284.5,931.1484,274.5,935.1484,284.5,939.1484,280.5,935.1484" style="stroke:#181818;stroke-width:1.0;"/><line style="stroke:#181818;stroke-width:1.0;stroke-dasharray:2.0,2.0;" x1="278.5" x2="510" y1="935.1484" y2="935.1484"/><text fill="#000000" font-family="sans-serif" font-size="13" lengthAdjust="spacing" textLength="15" x="290.5" y="930.0825">ok</text><path d="M10,957.1484 L148,957.1484 L148,964.2813 L138,974.2813 L10,974.2813 L10,957.1484 " fill="#EEEEEE" style="stroke:#000000;stroke-width:1.5;"/><rect fill="none" height="565.5234" style="stroke:#000000;stroke-width:1.5;" width="735" x="10" y="957.1484"/><text fill="#000000" font-family="sans-serif" font-size="13" font-weight="bold" lengthAdjust="spacing" textLength="93" x="25" y="970.2153">reset device</text><polygon fill="#181818" points="325.5,991.4141,335.5,995.4141,325.5,999.4141,329.5,995.4141" style="stroke:#181818;stroke-width:1.0;"/><line style="stroke:#181818;stroke-width:1.0;" x1="38.5" x2="331.5" y1="995.4141" y2="995.4141"/><text fill="#000000" font-family="sans-serif" font-size="13" lengthAdjust="spacing" textLength="81" x="45.5" y="990.3481">authenticate</text><polygon fill="#181818" points="430.5,1020.5469,440.5,1024.5469,430.5,1028.5469,434.5,1024.5469" style="stroke:#181818;stroke-width:1.0;"/><line style="stroke:#181818;stroke-width:1.0;" x1="337.5" x2="436.5" y1="1024.5469" y2="1024.5469"/><text fill="#000000" font-family="sans-serif" font-size="13" lengthAdjust="spacing" textLength="81" x="344.5" y="1019.481">authenticate</text><polygon fill="#181818" points="348.5,1049.6797,338.5,1053.6797,348.5,1057.6797,344.5,1053.6797" style="stroke:#181818;stroke-width:1.0;"/><line style="stroke:#181818;stroke-width:1.0;stroke-dasharray:2.0,2.0;" x1="342.5" x2="441.5" y1="1053.6797" y2="1053.6797"/><text fill="#000000" font-family="sans-serif" font-size="13" lengthAdjust="spacing" textLength="15" x="354.5" y="1048.6138">ok</text><polygon fill="#181818" points="49.5,1078.8125,39.5,1082.8125,49.5,1086.8125,45.5,1082.8125" style="stroke:#181818;stroke-width:1.0;"/><line style="stroke:#181818;stroke-width:1.0;stroke-dasharray:2.0,2.0;" x1="43.5" x2="336.5" y1="1082.8125" y2="1082.8125"/><text fill="#000000" font-family="sans-serif" font-size="13" lengthAdjust="spacing" textLength="12" x="55.5" y="1077.7466">UI</text><polygon fill="#181818" points="325.5,1107.9453,335.5,1111.9453,325.5,1115.9453,329.5,1111.9453" style="stroke:#181818;stroke-width:1.0;"/><line style="stroke:#181818;stroke-width:1.0;" x1="38.5" x2="331.5" y1="1111.9453" y2="1111.9453"/><text fill="#000000" font-family="sans-serif" font-size="13" lengthAdjust="spacing" textLength="79" x="45.5" y="1106.8794">reset device</text><polygon fill="#181818" points="499,1152.2109,509,1156.2109,499,1160.2109,503,1156.2109" style="stroke:#181818;stroke-width:1.0;"/><line style="stroke:#181818;stroke-width:1.0;" x1="337.5" x2="505" y1="1156.2109" y2="1156.2109"/><text fill="#000000" font-family="sans-serif" font-size="13" lengthAdjust="spacing" textLength="33" x="344.5" y="1136.0122">reset</text><text fill="#000000" font-family="sans-serif" font-size="13" lengthAdjust="spacing" textLength="78" x="344.5" y="1151.145">[authorized]</text><line style="stroke:#181818;stroke-width:1.0;stroke-dasharray:2.0,2.0;" x1="511" x2="553" y1="1185.3438" y2="1185.3438"/><line style="stroke:#181818;stroke-width:1.0;stroke-dasharray:2.0,2.0;" x1="553" x2="553" y1="1185.3438" y2="1198.3438"/><line style="stroke:#181818;stroke-width:1.0;stroke-dasharray:2.0,2.0;" x1="512" x2="553" y1="1198.3438" y2="1198.3438"/><polygon fill="#181818" points="522,1194.3438,512,1198.3438,522,1202.3438,518,1198.3438" style="stroke:#181818;stroke-width:1.0;"/><text fill="#000000" font-family="sans-serif" font-size="13" lengthAdjust="spacing" textLength="134" x="518" y="1180.2778">find(deviceId, userId)</text><line style="stroke:#181818;stroke-width:1.0;stroke-dasharray:2.0,2.0;" x1="511" x2="553" y1="1227.4766" y2="1227.4766"/><line style="stroke:#181818;stroke-width:1.0;stroke-dasharray:2.0,2.0;" x1="553" x2="553" y1="1227.4766" y2="1240.4766"/><line style="stroke:#181818;stroke-width:1.0;stroke-dasharray:2.0,2.0;" x1="512" x2="553" y1="1240.4766" y2="1240.4766"/><polygon fill="#181818" points="522,1236.4766,512,1240.4766,522,1244.4766,518,1240.4766" style="stroke:#181818;stroke-width:1.0;"/><text fill="#000000" font-family="sans-serif" font-size="13" lengthAdjust="spacing" textLength="211" x="518" y="1222.4106">update(token,IP,status=pending)</text><polygon fill="#181818" points="348.5,1265.6094,338.5,1269.6094,348.5,1273.6094,344.5,1269.6094" style="stroke:#181818;stroke-width:1.0;"/><line style="stroke:#181818;stroke-width:1.0;stroke-dasharray:2.0,2.0;" x1="342.5" x2="510" y1="1269.6094" y2="1269.6094"/><text fill="#000000" font-family="sans-serif" font-size="13" lengthAdjust="spacing" textLength="15" x="354.5" y="1264.5435">ok</text><polygon fill="#181818" points="49.5,1294.7422,39.5,1298.7422,49.5,1302.7422,45.5,1298.7422" style="stroke:#181818;stroke-width:1.0;"/><line style="stroke:#181818;stroke-width:1.0;stroke-dasharray:2.0,2.0;" x1="43.5" x2="336.5" y1="1298.7422" y2="1298.7422"/><text fill="#000000" font-family="sans-serif" font-size="13" lengthAdjust="spacing" textLength="15" x="55.5" y="1293.6763">ok</text><polygon fill="#181818" points="499,1323.875,509,1327.875,499,1331.875,503,1327.875" style="stroke:#181818;stroke-width:1.0;"/><line style="stroke:#181818;stroke-width:1.0;" x1="273.5" x2="505" y1="1327.875" y2="1327.875"/><text fill="#000000" font-family="sans-serif" font-size="13" lengthAdjust="spacing" textLength="209" x="280.5" y="1322.8091">measurement(type,value,token)</text><polygon fill="#181818" points="284.5,1353.0078,274.5,1357.0078,284.5,1361.0078,280.5,1357.0078" style="stroke:#181818;stroke-width:1.0;"/><line style="stroke:#181818;stroke-width:1.0;stroke-dasharray:2.0,2.0;" x1="278.5" x2="510" y1="1357.0078" y2="1357.0078"/><text fill="#000000" font-family="sans-serif" font-size="13" lengthAdjust="spacing" textLength="89" x="290.5" y="1351.9419">403/forbidden</text><polygon fill="#181818" points="499,1382.1406,509,1386.1406,499,1390.1406,503,1386.1406" style="stroke:#181818;stroke-width:1.0;"/><line style="stroke:#181818;stroke-width:1.0;" x1="273.5" x2="505" y1="1386.1406" y2="1386.1406"/><text fill="#000000" font-family="sans-serif" font-size="13" lengthAdjust="spacing" textLength="142" x="280.5" y="1381.0747">getToken(initialToken)</text><line style="stroke:#181818;stroke-width:1.0;stroke-dasharray:2.0,2.0;" x1="511" x2="553" y1="1430.4063" y2="1430.4063"/><line style="stroke:#181818;stroke-width:1.0;stroke-dasharray:2.0,2.0;" x1="553" x2="553" y1="1430.4063" y2="1443.4063"/><line style="stroke:#181818;stroke-width:1.0;stroke-dasharray:2.0,2.0;" x1="512" x2="553" y1="1443.4063" y2="1443.4063"/><polygon fill="#181818" points="522,1439.4063,512,1443.4063,522,1447.4063,518,1443.4063" style="stroke:#181818;stroke-width:1.0;"/><text fill="#000000" font-family="sans-serif" font-size="13" lengthAdjust="spacing" textLength="215" x="518" y="1410.2075">find(initialToken, status=pending)</text><text fill="#000000" font-family="sans-serif" font-size="13" lengthAdjust="spacing" textLength="37" x="518" y="1425.3403">found</text><line style="stroke:#181818;stroke-width:1.0;stroke-dasharray:2.0,2.0;" x1="511" x2="553" y1="1472.5391" y2="1472.5391"/><line style="stroke:#181818;stroke-width:1.0;stroke-dasharray:2.0,2.0;" x1="553" x2="553" y1="1472.5391" y2="1485.5391"/><line style="stroke:#181818;stroke-width:1.0;stroke-dasharray:2.0,2.0;" x1="512" x2="553" y1="1485.5391" y2="1485.5391"/><polygon fill="#181818" points="522,1481.5391,512,1485.5391,522,1489.5391,518,1485.5391" style="stroke:#181818;stroke-width:1.0;"/><text fill="#000000" font-family="sans-serif" font-size="13" lengthAdjust="spacing" textLength="144" x="518" y="1467.4731">update(status=active)</text><polygon fill="#181818" points="284.5,1510.6719,274.5,1514.6719,284.5,1518.6719,280.5,1514.6719" style="stroke:#181818;stroke-width:1.0;"/><line style="stroke:#181818;stroke-width:1.0;stroke-dasharray:2.0,2.0;" x1="278.5" x2="510" y1="1514.6719" y2="1514.6719"/><text fill="#000000" font-family="sans-serif" font-size="13" lengthAdjust="spacing" textLength="36" x="290.5" y="1509.606">token</text><!--SRC=[pLEzRjmm3Dxr51pFW8C6QAS3Mg155cyPcgcNWRPuL-5yb2DHLroVFfJincUdHJjaw2QH5FdzKDY93_0GAG16IARpVK-TECyHB9rTHp4dh24M9nVuF0pvZgRrYIs62pHtzpdYx60i2hOO2RvWToIsETwQ13UVm6v1Kc3mlEDnd6E8U29WaXy-77FjNHbe3i6d0LhQ-q202kQC6P2nkL6xXGF9Lw_zDuwTEEpBfJ8jt8pvlMExoDKG1IN5ZuE2SdoeTioUQNgXq3xSld-dqrfdBR5IjHE6UJX4Uah4YgxGmIrWakzPb0w53EQWIh0AQwICq79_p4LwJbjuQEOkrewiLsHmujhrw4xBt8w_vI4-k9za7sVQNI2TgLafd1S2BFdNIGreNjwkqEdvBPNUvqMPdwH1juGsKraHcAhPYOBzoe6Or-X465EWa-eQNx1T1JTo6QW-Ov-ebjz0d1HUfnoh3BAvQdG5H5MOKGIA9DD_UEC5MBJ-vNe9_idd8lhueB4rZ5vMhnGUjw2vNtbV_TNqVn7srP_v3pRc6G00]--></g></svg>